<svg width="60" height="60" viewBox="0 0 60 60" fill="none" xmlns="http://www.w3.org/2000/svg">
<path d="M11.55 45.3C14.1 43.35 16.95 41.8125 20.1 40.6875C23.25 39.5625 26.55 39 30 39C33.45 39 36.75 39.5625 39.9 40.6875C43.05 41.8125 45.9 43.35 48.45 45.3C50.2 43.25 51.5625 40.925 52.5375 38.325C53.5125 35.725 54 32.95 54 30C54 23.35 51.6625 17.6875 46.9875 13.0125C42.3125 8.3375 36.65 6 30 6C23.35 6 17.6875 8.3375 13.0125 13.0125C8.3375 17.6875 6 23.35 6 30C6 32.95 6.4875 35.725 7.4625 38.325C8.4375 40.925 9.8 43.25 11.55 45.3ZM30 33C27.05 33 24.5625 31.9875 22.5375 29.9625C20.5125 27.9375 19.5 25.45 19.5 22.5C19.5 19.55 20.5125 17.0625 22.5375 15.0375C24.5625 13.0125 27.05 12 30 12C32.95 12 35.4375 13.0125 37.4625 15.0375C39.4875 17.0625 40.5 19.55 40.5 22.5C40.5 25.45 39.4875 27.9375 37.4625 29.9625C35.4375 31.9875 32.95 33 30 33ZM30 60C25.85 60 21.95 59.2125 18.3 57.6375C14.65 56.0625 11.475 53.925 8.775 51.225C6.075 48.525 3.9375 45.35 2.3625 41.7C0.7875 38.05 0 34.15 0 30C0 25.85 0.7875 21.95 2.3625 18.3C3.9375 14.65 6.075 11.475 8.775 8.775C11.475 6.075 14.65 3.9375 18.3 2.3625C21.95 0.7875 25.85 0 30 0C34.15 0 38.05 0.7875 41.7 2.3625C45.35 3.9375 48.525 6.075 51.225 8.775C53.925 11.475 56.0625 14.65 57.6375 18.3C59.2125 21.95 60 25.85 60 30C60 34.15 59.2125 38.05 57.6375 41.7C56.0625 45.35 53.925 48.525 51.225 51.225C48.525 53.925 45.35 56.0625 41.7 57.6375C38.05 59.2125 34.15 60 30 60ZM30 54C32.65 54 35.15 53.6125 37.5 52.8375C39.85 52.0625 42 50.95 43.95 49.5C42 48.05 39.85 46.9375 37.5 46.1625C35.15 45.3875 32.65 45 30 45C27.35 45 24.85 45.3875 22.5 46.1625C20.15 46.9375 18 48.05 16.05 49.5C18 50.95 20.15 52.0625 22.5 52.8375C24.85 53.6125 27.35 54 30 54ZM30 27C31.3 27 32.375 26.575 33.225 25.725C34.075 24.875 34.5 23.8 34.5 22.5C34.5 21.2 34.075 20.125 33.225 19.275C32.375 18.425 31.3 18 30 18C28.7 18 27.625 18.425 26.775 19.275C25.925 20.125 25.5 21.2 25.5 22.5C25.5 23.8 25.925 24.875 26.775 25.725C27.625 26.575 28.7 27 30 27Z" fill="#E3E3E3"/>
</svg>
